<svg xmlns="http://www.w3.org/2000/svg" width="1097" height="1097" viewBox="0 0 1095.84 1096.94"><path fill="none" stroke="#fdc660" stroke-linecap="round" stroke-miterlimit="10" stroke-width="15.01" d="M157.78 67.6c5.5-5.98 12.37-10.83 20.79-17.14a154.53 154.53 0 0 1 46.5-23.75m-58.37-.01h45.51"/><path fill="#1b1b1b" d="M431.37 174.5a15.1 15.1 0 0 1-16.9-11.17c-6.34-24.58-24.77-72.63-75.53-101.64-45.44-25.96-90.68-20.1-114.72-14.87a15.11 15.11 0 0 1-17.63-10.14l-3.72-11.59a15.1 15.1 0 0 1 11.05-19.36c30.15-6.7 87.9-14.05 146.04 19.17 64.74 37 87.95 98.29 95.81 129.15a15.1 15.1 0 0 1-12.38 18.61z"/><path fill="#b3b3b3" d="m260.69 351.6 14.8-61.14c-.86-13.9-2.47-66.29 33.83-114.18a159.79 159.79 0 0 1 19.8-21.7c48.38-44.33 109.2-45.5 117.95-45.55l73.54-.56 28.14-.22 73.66-.57c26.34-.2 52.7-.4 79.04-.62 1.45.06 3.32.15 5.58.34 18.12 1.37 60.44 7.68 98.76 39.78h.01a167.61 167.61 0 0 1 21.11 21.16c40.86 49 40.45 106.1 40.2 116.2l14.8 67.06H260.68z"/><circle cx="390.97" cy="163.28" r="15.78" fill="#353535"/><circle cx="743.6" cy="151.33" r="16.27" fill="#353535"/><path fill="#dadada" d="M593.59 108.25V321.7h-28.14V108.47l28.14-.22zM375.98 223.24a14.01 14.01 0 0 1-19.36-4.58 104.03 104.03 0 0 0-15.69-19.58 105.79 105.79 0 0 0-31.61-21.14 159.79 159.79 0 0 1 19.8-21.7 131.51 131.51 0 0 1 31.47 22.69c7.58 7.41 14.3 15.8 19.95 24.93a14.09 14.09 0 0 1-4.56 19.38zM826.91 170a105.11 105.11 0 0 0-32.87 21.65 103.38 103.38 0 0 0-15.66 19.6 14.09 14.09 0 0 1-19.39 4.57 14.06 14.06 0 0 1-4.55-19.37 130.65 130.65 0 0 1 51.35-47.61h.01A167.61 167.61 0 0 1 826.91 170z"/><path fill="#828282" d="m262.12 351.28 14.8-61.14c-.1-1.62-.2-3.72-.26-6.29.3-.53.6-1.07.92-1.6a1625.15 1625.15 0 0 0 590.31-6.56c.2.24.41.5.64.75.1 3.56.06 6.23.02 7.78l14.78 67.06H262.12z"/><path fill="#636464" d="m260.24 354.82 14.8-61.15c-.04-.8-.1-1.73-.14-2.78 0 0-.07-1.7-.12-3.5-.05-2.22-.02-8.16.23-16.12a23771.2 23771.2 0 0 0 589.3-5.92 72.4 72.4 0 0 1 2.36 22.41l14.78 67.06z"/><path fill="none" stroke="#fdc660" stroke-linecap="round" stroke-miterlimit="10" stroke-width="15.01" d="m927.93 1047.87 41.56-17.81m-36.61 25.73a166.2 166.2 0 0 1 40.57 9.9m-632.36-12.87 34.63-8.9m-36.62 45.52a44.95 44.95 0 0 1 8.91-15.84c12.55-14.31 30.38-15.63 34.64-15.83M122.38 789.58c4.05.6 9.27 2.1 13.86 5.94 9.7 8.1 12.77 23.35 7.91 38.6m19.8-60.37c-4.3 21.11-8.58 42.22-12.87 63.34"/><path fill="#1b1b1b" d="M275.68 992.22c-28.82 0-62.85-7.07-93.97-31.72-47.48-37.6-56.8-91.72-58.28-119.42a15.11 15.11 0 0 1 16.17-15.87l12.2.86a15.15 15.15 0 0 1 14.03 14.2c1.3 20.5 8.4 60.25 42.19 87 44.84 35.52 100 20 115.85 14.4 51.75-18.33 74.67-64.9 83.03-87.59a15.1 15.1 0 0 1 17.68-9.47l11.91 2.84a15.1 15.1 0 0 1 10.75 19.72c-10.58 29.6-39.98 89.92-109.23 114.44a192.83 192.83 0 0 1-62.33 10.61zm91.77 63.25-2.4-12.04a15.12 15.12 0 0 1 10.04-17.28c13.84-4.66 33.28-14.22 48.82-33.46 19.68-24.36 23.15-51.56 23.01-68.33a15.07 15.07 0 0 1 13.04-15l12.08-1.67a15.1 15.1 0 0 1 17.19 14.7c.36 23.28-4.2 62.07-32.36 96.93-22.29 27.58-49.56 41.04-69.97 47.6a15.12 15.12 0 0 1-19.45-11.45zm555.49 16.73c-65.27 0-125.2-34.54-152.46-89.29-22.78-45.74-16.03-91.36-8.96-116.75a15.1 15.1 0 0 1 20.1-9.98l11.32 4.46a15.07 15.07 0 0 1 9.07 17.96c-5.23 19.11-9.99 52.51 6.4 85.42 19.98 40.1 64.47 65.47 113.44 65.8a15.09 15.09 0 0 1 14.9 13.78l1.09 12.32a14.92 14.92 0 0 1-14.74 16.28h-.16z"/><path fill="#b3b3b3" d="M879.44 662.85h-.4l.21-1.3c1.5-9.5 1.83-20.28.05-32.3a2426.86 2426.86 0 0 1-569.15 30.99c.15.87.32 1.74.45 2.62h-.38c.45 109.6-3.04 164.23 11.64 195.5l.03.03a107.5 107.5 0 0 0 2.07 6.28c16.2 47.36 68.34 54.94 115.55 67.95 10.74 2.97 21.26 6.2 31.03 10.27 4.41 2.17 8.38 4.43 11.99 6.78 16.08 10.3 25.47 21.46 36.67 26.77 24.82 11.76 51.99 15.23 75.62 14.75 23.65.48 50.8-2.99 75.64-14.75 11.17-5.31 20.57-16.45 36.62-26.77 3.61-2.32 7.6-4.61 12.01-6.78 9.77-4.06 20.3-7.3 31.06-10.27 47.23-13.01 99.35-20.59 115.55-67.95a95.7 95.7 0 0 0 2.1-6.33c0-.02.02-.02.02-.05 14.63-31.28 11.14-85.94 11.62-195.44z"/><path fill="#898989" d="m847.29 666.15-533.13-.66c-13.7-6.65-30.9-12.49-43.71-32.2-36.92-56.81-12.53-69.35-24-186.84a615.93 615.93 0 0 0-8.65-58.98 104 104 0 0 1 12.25-72.45l25.33-43.43a1624.67 1624.67 0 0 0 590.31-6.57l29.83 35.51a82.63 82.63 0 0 1 18.31 66.34 555.5 555.5 0 0 0-6.07 54.6c-8.27 135.28 37.4 161.76-5.26 213.13-8.74 10.53-24.62 24.13-55.21 31.55z"/><path fill="#636464" d="M274.72 636.57c.08 7.84 21.09 23.46 40.6 29.74 9.27 3 16.75 4.08 23.7 4.88 25.05 2.87 46.51 20 53.8 44.13 13.82 45.88.04 112.12 52.16 141.46 18 10.13 30.95 7.08 78.88 3.95 117.26-10.63 144.03-4.97 200.28-3.07 16.26.56 32.36-4.64 44.75-15.18 21.9-18.65 21.85-41.07 23.18-82 1.13-34.81-4.56-52.08 11.46-68.16a47.9 47.9 0 0 1 17.14-10.86c21.91-8.24 31.3-5.42 53.57-21.23 178.73-156.2-624.6-49.1-599.52-23.66z"/><path fill="#353535" d="M241.18 458.08c2.49-12.07 7.26-33.89 24.65-53.25 52.91-58.9 178.72-46.18 241.58 15.78a149.7 149.7 0 0 1 9.57 10.36 62.92 62.92 0 0 0 49.9 22.27l32.9-.87a62.95 62.95 0 0 0 47.93-23.94c1.83-2.34 3.82-4.74 5.96-7.17 51.29-57.99 154.27-87.09 212.66-44.04 19.55 14.42 28.51 32.8 33.53 43.39 26.97 56.99 23.91 153.86-49.3 207.07-62.4 45.34-150.07 40.3-208.17-12.92l-102.17-.21c-55.38 51.72-135.27 65.43-200.44 34.82-76.61-35.98-112.54-123.66-98.6-191.3z"/><circle cx="418.75" cy="520.86" r="94.29" fill="#1b1b1b"/><path fill="#fff" d="M418.75 435.08a85.79 85.79 0 1 1 0 171.57 85.79 85.79 0 0 1 0-171.57m0-17c-56.67 0-102.78 46.1-102.78 102.78s46.1 102.79 102.78 102.79 102.79-46.11 102.79-102.79c0-56.67-46.11-102.78-102.79-102.78z"/><circle cx="420.38" cy="521.22" r="33.1" fill="#fdc660"/><circle cx="748.81" cy="515.62" r="94.29" fill="#1b1b1b"/><path fill="#fff" d="M748.8 429.83a85.79 85.79 0 1 1 0 171.58 85.79 85.79 0 0 1 0-171.58m0-17c-56.67 0-102.78 46.11-102.78 102.8 0 56.67 46.1 102.78 102.79 102.78 56.67 0 102.78-46.11 102.78-102.79 0-56.68-46.1-102.79-102.78-102.79z"/><circle cx="750.44" cy="515.98" r="33.1" fill="#fdc660"/><circle cx="296.4" cy="426.85" r="15.12" fill="#fff"/><circle cx="850.23" cy="416.66" r="13.8" fill="#fff"/><circle cx="369.3" cy="855.12" r="16.27"/><circle cx="828.95" cy="849.86" r="16.27"/><circle cx="581.09" cy="396.75" r="18.24" fill="#1b1b1b"/><circle cx="581.34" cy="332.69" r="18.24" fill="#1b1b1b"/><path fill="#353535" d="M574.31 615.98a255.32 255.32 0 0 1-37.73 45.67 249.8 249.8 0 0 1-38 30.07 254.45 254.45 0 0 1-102.45 37.83 136.4 136.4 0 0 0-3.32-13.87 60.4 60.4 0 0 0-6.92-15.1c26.58-2.99 61.55-11.65 96.45-34.11a225.5 225.5 0 0 0 66.75-66.77zM792 731.5a254.37 254.37 0 0 1-110.38-38.8 251 251 0 0 1-38.98-31.02 255.3 255.3 0 0 1-36.75-44.7l25.21-16.29a226.05 226.05 0 0 0 66.75 66.77 224.66 224.66 0 0 0 98.84 34.35c-4.33 8.3-4.82 17.57-4.7 29.69z"/><path fill="#1b1b1b" d="M638.24 714.65c-12.24 8.28-32.92-.48-49.3-9.86-13.84 10.33-30.42 19.57-41.41 13.81-37.04-19.41.5-203.48 37.47-205.1 36.69-1.6 90.8 175.77 53.24 201.15zm54.22 194.05H499.88a33.2 33.2 0 0 1-33.21-33.21v-82.15a33.2 33.2 0 0 1 33.2-33.2h192.6a33.2 33.2 0 0 1 33.2 33.2v82.15a33.2 33.2 0 0 1-33.2 33.2z"/><path fill="none" stroke="#fff" stroke-linecap="round" stroke-miterlimit="10" stroke-width="15.01" d="M487.6 840.56h216.74m-107.68-66.3v119.8m45.02-119.8v119.8m45.03-119.8v119.8M506.6 774.26v119.8m45.03-119.8v119.8"/></svg>