<?xml version="1.0" standalone="no"?>
<!DOCTYPE svg PUBLIC "-//W3C//DTD SVG 20010904//EN"
 "http://www.w3.org/TR/2001/REC-SVG-20010904/DTD/svg10.dtd">
<svg version="1.0" xmlns="http://www.w3.org/2000/svg"
 width="1097.000000pt" height="1097.000000pt" viewBox="0 0 1097.000000 1097.000000"
 preserveAspectRatio="xMidYMid meet">
<metadata>
Created by potrace 1.14, written by Peter Selinger 2001-2017
</metadata>
<g transform="translate(0.000000,1097.000000) scale(0.100000,-0.100000)"
fill="#000000" stroke="none">
<path d="M2478 10965 c-1 -2 -32 -6 -68 -9 -36 -3 -78 -8 -95 -11 -66 -11 -80
-14 -80 -15 0 -1 -11 -3 -25 -5 -60 -8 -84 -15 -108 -31 -37 -24 -60 -54 -67
-86 -5 -22 -13 -28 -33 -29 -15 0 -100 0 -190 -1 -180 0 -194 -5 -211 -64 -7
-27 -5 -36 15 -58 26 -28 26 -28 187 -28 88 0 103 -5 68 -23 -11 -6 -35 -18
-55 -29 -20 -10 -36 -22 -36 -27 0 -5 -6 -9 -14 -9 -8 0 -16 -4 -18 -8 -1 -5
-28 -27 -58 -49 -30 -22 -66 -51 -80 -63 -14 -12 -37 -32 -51 -44 -73 -62 -61
-148 21 -154 23 -2 40 7 73 36 134 121 313 245 415 287 27 12 34 12 38 1 10
-27 80 -49 131 -43 71 10 116 17 132 23 67 23 420 23 535 0 44 -9 82 -14 84
-11 3 3 10 1 16 -4 7 -6 23 -12 36 -14 58 -11 192 -62 283 -108 209 -105 405
-269 540 -454 37 -49 71 -95 77 -102 22 -26 9 -42 -52 -63 -35 -11 -69 -22
-75 -22 -7 -1 -13 -5 -13 -10 0 -4 -11 -8 -25 -8 -14 0 -25 -4 -25 -9 0 -7
-36 -22 -43 -18 -1 1 -17 -8 -34 -21 -18 -13 -33 -20 -33 -17 0 3 -13 -3 -29
-14 -16 -12 -34 -21 -40 -21 -6 0 -11 -4 -11 -9 0 -5 -9 -13 -20 -16 -24 -8
-171 -115 -220 -161 -19 -18 -47 -43 -61 -56 -38 -34 -160 -177 -196 -228
-164 -239 -279 -559 -297 -831 -4 -61 -20 -104 -61 -170 -16 -24 -28 -46 -28
-49 0 -3 -8 -16 -18 -29 -11 -13 -19 -30 -19 -37 0 -8 -4 -14 -9 -14 -5 0 -11
-8 -14 -17 -8 -24 -40 -76 -52 -85 -7 -5 -7 -8 0 -8 7 0 7 -3 0 -8 -11 -8 -18
-20 -76 -124 -21 -38 -35 -68 -32 -68 3 0 1 -6 -5 -12 -11 -15 -59 -158 -67
-203 -24 -137 -25 -293 -1 -411 2 -12 7 -37 10 -55 3 -19 10 -59 16 -89 16
-83 32 -190 35 -240 2 -25 4 -45 5 -45 1 0 3 -15 5 -33 2 -19 6 -36 8 -39 3
-3 -1 -28 -10 -56 -8 -28 -16 -58 -18 -66 -2 -9 -10 -52 -19 -95 -9 -44 -15
-85 -12 -93 3 -7 2 -13 -2 -13 -4 0 -8 -15 -9 -32 -3 -90 -2 -277 2 -303 3
-16 7 -53 10 -81 3 -28 15 -87 26 -130 10 -43 21 -90 24 -104 2 -14 11 -45 21
-70 13 -34 17 -82 19 -195 1 -82 5 -170 9 -195 3 -25 8 -59 11 -77 9 -65 83
-274 105 -293 3 -3 10 -17 17 -31 6 -14 27 -51 47 -82 20 -31 36 -59 36 -62 0
-2 10 -15 23 -28 12 -13 36 -38 53 -57 36 -40 91 -90 100 -90 3 0 20 -10 37
-22 42 -30 67 -45 97 -57 14 -6 36 -17 50 -24 l25 -13 2 -579 c2 -638 5 -774
17 -793 4 -7 2 -12 -4 -12 -6 0 -8 -4 -5 -10 3 -5 8 -42 11 -82 5 -71 11 -123
14 -123 0 0 3 -20 5 -45 3 -25 7 -52 8 -60 2 -8 7 -33 11 -55 4 -22 9 -46 12
-53 2 -7 4 -14 4 -17 0 -3 11 -29 23 -57 13 -29 27 -66 31 -82 11 -45 78 -186
87 -186 5 0 9 -7 9 -15 0 -22 116 -141 185 -190 33 -23 89 -57 125 -76 36 -19
67 -35 69 -36 13 -8 -187 -166 -259 -204 -25 -13 -48 -28 -51 -32 -3 -5 -10
-9 -15 -10 -5 0 -34 -11 -64 -25 -30 -13 -63 -26 -73 -27 -9 -2 -22 -7 -27
-10 -17 -11 -174 -48 -259 -61 -98 -16 -335 -10 -436 10 -74 15 -164 44 -182
59 -7 5 -13 7 -13 3 0 -4 -13 0 -30 9 -16 8 -31 15 -32 14 -4 -3 -148 90 -164
105 -7 6 -27 22 -45 36 -36 27 -105 99 -140 145 -13 17 -29 36 -36 43 -7 7
-13 20 -13 28 0 8 -4 14 -9 14 -12 0 -104 188 -129 265 -30 90 -54 206 -66
315 -7 69 -17 103 -36 125 -11 12 -17 32 -15 50 2 17 4 30 5 30 1 0 3 11 6 25
9 55 19 106 24 115 1 3 4 14 5 25 1 11 4 21 5 23 1 1 3 13 4 27 2 14 7 36 11
50 4 14 9 36 11 50 4 36 12 81 19 110 24 95 9 135 -54 144 -56 8 -73 -21 -106
-186 -15 -79 -28 -149 -28 -155 0 -18 -1 -17 -31 28 -54 80 -137 136 -229 153
-40 7 -96 -16 -98 -41 -1 -7 -2 -19 -3 -25 -4 -27 25 -68 52 -73 15 -4 35 -10
44 -16 10 -5 25 -9 33 -9 8 0 15 -4 15 -8 0 -5 11 -15 25 -22 13 -7 22 -17 19
-22 -3 -4 -1 -8 5 -8 14 0 40 -77 45 -130 3 -47 -8 -85 -24 -75 -14 9 -73 -25
-100 -58 -50 -62 -32 -240 54 -562 2 -5 8 -21 13 -35 6 -14 9 -28 6 -33 -2 -4
1 -7 7 -7 6 0 9 -4 5 -9 -3 -5 -1 -12 5 -16 5 -3 10 -15 10 -26 0 -10 5 -19
10 -19 6 0 10 -7 10 -16 0 -17 92 -197 110 -214 3 -3 23 -32 45 -65 47 -70
227 -254 305 -312 108 -80 234 -149 370 -203 25 -10 47 -18 50 -18 3 0 12 -3
20 -6 24 -8 132 -35 168 -41 17 -3 44 -7 60 -10 155 -25 414 -21 558 10 12 3
39 7 60 11 50 8 51 8 104 24 25 7 50 14 57 16 88 17 367 144 442 201 9 6 53
39 99 73 78 57 237 208 292 278 l25 32 60 -16 c33 -9 67 -19 75 -22 8 -3 20
-6 27 -8 6 -1 44 -10 82 -20 l71 -18 -5 -51 c-5 -48 -8 -66 -21 -117 -3 -13
-7 -33 -10 -46 -12 -61 -109 -274 -133 -292 -3 -3 -18 -24 -33 -47 -38 -59
-162 -177 -233 -224 -33 -21 -64 -42 -70 -47 -19 -14 -163 -82 -174 -82 -38 0
-120 -66 -127 -102 -1 -5 -3 -11 -4 -15 -1 -5 -2 -11 -1 -15 0 -5 -3 -9 -9 -9
-13 -2 -29 -6 -32 -9 -2 -1 -10 -3 -18 -5 -8 -1 -53 -13 -100 -25 -47 -12 -89
-23 -95 -25 -29 -7 -44 -19 -55 -44 -18 -44 9 -95 55 -102 22 -3 120 18 147
32 11 6 19 5 24 -3 4 -7 3 -8 -4 -4 -7 4 -12 3 -12 -1 0 -5 -16 -17 -35 -27
-72 -39 -177 -180 -199 -269 -17 -70 67 -126 119 -77 13 12 26 33 30 47 16 65
103 165 174 200 20 9 38 17 41 18 3 0 11 4 18 9 13 8 45 9 122 2 19 -1 42 1
50 5 19 10 51 21 68 25 8 1 21 6 30 10 9 4 19 8 22 9 22 8 106 49 110 54 3 4
17 12 32 18 27 12 161 97 185 118 7 5 33 28 59 50 167 141 317 346 395 540 4
11 15 38 24 60 9 22 18 47 20 55 2 8 11 41 20 74 19 66 23 83 24 109 1 22 12
22 37 -1 10 -9 37 -30 59 -47 21 -16 46 -36 55 -45 8 -8 25 -22 36 -30 101
-72 147 -100 199 -119 33 -13 69 -27 80 -32 11 -5 29 -12 40 -14 11 -3 64 -16
118 -29 53 -14 128 -28 165 -33 115 -14 637 -8 637 7 0 1 14 3 30 5 17 2 50 8
75 15 25 6 56 13 69 16 14 3 28 7 33 10 4 3 18 7 30 9 34 7 203 77 206 87 2 4
8 8 13 8 8 0 232 171 249 190 14 16 143 92 195 116 75 34 90 40 140 54 22 6
47 14 55 17 8 3 20 7 25 9 6 1 33 9 60 18 70 22 90 21 93 -6 5 -52 11 -103 13
-105 2 -3 2 -3 14 -58 4 -22 9 -44 10 -50 13 -58 91 -254 116 -295 5 -8 15
-27 22 -43 6 -15 15 -27 19 -27 4 0 8 -5 8 -10 0 -15 71 -120 81 -120 5 0 9
-5 9 -11 0 -11 84 -112 137 -165 60 -61 177 -154 264 -210 86 -57 270 -153
302 -158 7 -1 17 -4 22 -8 20 -13 194 -66 237 -72 15 -3 31 -7 36 -10 8 -4 80
-16 137 -22 17 -1 30 -3 30 -4 0 -1 24 -3 53 -5 28 -2 57 -7 62 -10 6 -3 10
-1 10 5 0 6 5 8 11 4 17 -10 89 -11 89 -1 0 4 4 6 9 3 21 -14 119 52 103 69
-7 7 44 1 131 -16 27 -5 89 -22 138 -39 50 -16 101 -30 113 -30 65 0 93 83 42
127 -15 12 -39 26 -54 29 -15 3 -34 8 -42 11 -8 4 -18 7 -22 8 -5 2 -10 4 -13
5 -3 1 -8 3 -12 4 -5 1 -13 4 -19 8 -6 4 -26 9 -43 10 -18 1 -35 6 -37 10 -3
4 -20 8 -37 8 -46 0 -66 15 -40 29 11 5 23 7 27 4 3 -3 6 -1 6 5 0 7 8 12 18
12 10 0 22 4 28 8 5 5 27 16 49 25 22 8 63 25 90 38 28 12 53 22 57 21 3 -1
13 14 22 32 34 72 -28 130 -104 98 -14 -5 -90 -38 -169 -71 -140 -60 -160 -64
-161 -29 0 15 -92 38 -175 43 -98 7 -108 8 -175 20 -70 12 -73 12 -105 25 -16
6 -32 11 -35 11 -9 -1 -94 26 -125 40 -16 7 -32 13 -35 13 -10 2 -125 61 -130
66 -3 3 -26 18 -52 33 -95 55 -235 186 -317 297 -23 30 -41 60 -41 67 0 7 -4
13 -9 13 -5 0 -13 10 -17 23 -4 12 -10 24 -14 27 -8 5 -50 109 -73 180 -16 47
-32 123 -42 200 -4 24 -8 47 -10 50 -9 14 26 38 85 59 336 117 530 291 610
546 7 22 21 59 31 81 19 42 56 190 64 254 2 19 7 53 10 75 8 61 16 197 19 331
2 67 6 125 9 131 3 5 2 15 -3 23 -5 8 -5 22 1 32 6 12 6 18 0 18 -7 0 -7 9 -1
25 6 16 6 25 0 25 -6 0 -6 9 0 25 6 15 6 26 -1 30 -5 4 -6 11 -2 17 8 14 8 69
0 91 -3 9 -2 19 3 22 6 3 5 16 0 31 -6 14 -7 23 -2 21 9 -6 7 67 -3 82 -3 6
-3 11 2 11 4 0 8 11 8 25 0 14 -2 25 -5 25 -7 0 -4 66 4 79 4 5 2 13 -4 16 -7
4 -8 11 -2 18 5 7 6 21 2 32 -6 17 -2 44 10 65 2 3 -2 15 -8 27 -7 13 -8 24
-3 28 6 3 6 17 1 35 -5 18 -5 30 0 30 6 0 5 11 0 26 -6 14 -7 23 -2 21 8 -6 8
100 0 108 -3 3 -2 23 2 45 4 22 3 37 -1 34 -5 -3 -5 6 1 20 6 16 6 27 -1 31
-5 4 -6 11 -3 17 4 6 8 24 9 40 3 30 30 61 90 103 45 31 129 117 172 176 39
54 108 170 106 179 -1 4 7 26 23 70 16 42 23 219 11 305 -4 28 -9 70 -12 95
-3 25 -8 56 -11 70 -3 14 -7 39 -10 55 -3 17 -14 77 -24 135 -10 58 -17 121
-14 140 2 19 8 69 13 110 9 74 7 377 -3 435 -2 17 -8 46 -11 65 -4 19 -8 44
-9 55 -2 11 -13 58 -25 105 -12 47 -23 101 -23 120 0 51 11 247 16 289 3 20 8
63 11 96 7 69 15 139 20 175 25 165 31 227 29 285 -4 116 -28 219 -74 320 -25
54 -83 150 -106 173 -8 7 -27 30 -42 50 -15 20 -36 47 -48 58 -12 12 -43 49
-69 83 -26 34 -52 61 -56 61 -5 0 -9 6 -9 14 0 8 -3 16 -7 18 -5 2 -22 19 -39
40 -23 26 -34 51 -39 90 -19 132 -25 158 -69 328 -2 8 -16 47 -31 85 -15 39
-29 80 -32 93 -3 12 -10 22 -16 22 -6 0 -8 3 -4 6 12 12 -139 271 -199 341
-10 12 -30 37 -44 54 -36 48 -160 170 -206 205 -21 16 -43 34 -49 41 -5 7 -48
37 -95 68 -131 87 -382 204 -465 217 -11 2 -22 6 -25 10 -3 3 -18 8 -35 11
-16 3 -41 8 -55 12 -39 9 -131 27 -170 32 -57 9 -1122 9 -1127 0 -2 -4 -10 -4
-16 0 -15 9 -97 10 -97 1 0 -4 -11 -4 -23 1 -13 5 -30 5 -37 1 -8 -5 -17 -7
-20 -5 -11 7 -40 7 -766 0 l-690 -5 -14 27 c-22 43 -132 227 -139 233 -4 3
-18 21 -31 40 -13 19 -27 37 -30 40 -3 3 -18 23 -35 45 -43 58 -231 242 -300
295 -33 25 -61 48 -63 53 -2 4 -8 7 -13 7 -11 0 -72 42 -77 53 -2 4 -8 7 -14
7 -5 0 -23 9 -39 20 -66 47 -312 157 -404 181 -2 0 -26 8 -52 16 -64 20 -169
43 -218 48 -22 3 -51 7 -65 11 -26 6 -416 15 -422 9z"/>
</g>
</svg>
